<svg width="65" height="29" viewBox="0 0 65 29" fill="none" xmlns="http://www.w3.org/2000/svg">
<path d="M0 28.2191V8.19853H5.43184V11.6917H5.64224C6.01049 10.4491 6.62864 9.51062 7.49671 8.87628C8.36477 8.23325 9.36428 7.91177 10.4954 7.91177C10.776 7.91177 11.0785 7.92913 11.4029 7.96391C11.7273 7.99863 12.0123 8.04647 12.2578 8.10729V13.0342C11.9947 12.956 11.6308 12.8865 11.1661 12.8257C10.7014 12.7648 10.2762 12.7344 9.89037 12.7344C9.06617 12.7344 8.32967 12.9125 7.68083 13.2688C7.04075 13.6164 6.53223 14.103 6.15517 14.7286C5.78692 15.3543 5.6028 16.0755 5.6028 16.8923V28.2191H0ZM15.1545 28.2191V8.19853H20.7573V28.2191H15.1545ZM17.9691 5.61775C17.1361 5.61775 16.4215 5.34404 15.8253 4.79656C15.2378 4.24046 14.9441 3.5757 14.9441 2.80235C14.9441 2.03767 15.2378 1.3816 15.8253 0.83418C16.4215 0.278021 17.1361 0 17.9691 0C18.802 0 19.5122 0.278021 20.0997 0.83418C20.6959 1.3816 20.9941 2.03767 20.9941 2.80235C20.9941 3.5757 20.6959 4.24046 20.0997 4.79656C19.5122 5.34404 18.802 5.61775 17.9691 5.61775ZM42.0539 13.9075L36.9246 14.2203C36.8369 13.7859 36.6484 13.3948 36.359 13.0472C36.0697 12.691 35.6883 12.4086 35.2148 12.2C34.7501 11.9827 34.1933 11.8741 33.5445 11.8741C32.6764 11.8741 31.9443 12.0566 31.3481 12.4216C30.7518 12.7778 30.4537 13.2558 30.4537 13.8554C30.4537 14.3333 30.6466 14.7373 31.0324 15.0675C31.4182 15.3978 32.0802 15.6628 33.0184 15.8626L36.6747 16.5925C38.6387 16.9922 40.103 17.6353 41.0675 18.5216C42.032 19.4079 42.5142 20.5723 42.5142 22.0148C42.5142 23.3269 42.1241 24.4782 41.3437 25.4689C40.5721 26.4595 39.5112 27.2328 38.1609 27.7889C36.8193 28.3363 35.2718 28.6101 33.5182 28.6101C30.8439 28.6101 28.7133 28.0583 27.1262 26.9547C25.548 25.8425 24.623 24.3305 24.3511 22.4188L29.8619 22.1321C30.0285 22.9402 30.4318 23.5571 31.0719 23.9829C31.712 24.4001 32.5318 24.6086 33.5313 24.6086C34.5133 24.6086 35.3025 24.4217 35.8987 24.0481C36.5037 23.6658 36.8106 23.1748 36.8193 22.5753C36.8106 22.0713 36.5958 21.6585 36.1749 21.337C35.754 21.0068 35.1052 20.7548 34.2284 20.581L30.7299 19.8902C28.7571 19.4992 27.2885 18.8214 26.3239 17.8568C25.3682 16.8923 24.8904 15.6628 24.8904 14.1682C24.8904 12.8821 25.2411 11.7742 25.9426 10.8444C26.6527 9.91466 27.648 9.19782 28.9281 8.6938C30.217 8.18979 31.7251 7.93781 33.4524 7.93781C36.0039 7.93781 38.0118 8.47224 39.4761 9.54103C40.9491 10.6098 41.8084 12.0653 42.0539 13.9075ZM55.2487 28.6101C53.1707 28.6101 51.382 28.193 49.8827 27.3588C48.3921 26.5159 47.2435 25.3255 46.4369 23.7874C45.6302 22.2407 45.2268 20.4116 45.2268 18.3C45.2268 16.2406 45.6302 14.4332 46.4369 12.8778C47.2435 11.3224 48.379 10.1102 49.8433 9.24122C51.3163 8.37232 53.0436 7.93781 55.0252 7.93781C56.3579 7.93781 57.5984 8.1507 58.7472 8.57652C59.9047 8.99361 60.9129 9.62359 61.7724 10.4664C62.6401 11.3094 63.3156 12.3695 63.7976 13.6468C64.2797 14.9155 64.5207 16.4014 64.5207 18.1045V19.6295H47.4627V16.1885H59.2469C59.2469 15.389 59.0717 14.6809 58.7207 14.0639C58.3703 13.447 57.8836 12.9647 57.261 12.6171C56.6473 12.2608 55.9327 12.0827 55.1172 12.0827C54.2668 12.0827 53.5127 12.2782 52.8551 12.6692C52.2062 13.0516 51.6977 13.5686 51.3294 14.2203C50.9612 14.8633 50.7726 15.5802 50.7639 16.371V19.6425C50.7639 20.6331 50.948 21.4891 51.3163 22.2103C51.6933 22.9315 52.2238 23.4876 52.9077 23.8787C53.5916 24.2697 54.4026 24.4652 55.3408 24.4652C55.9634 24.4652 56.5333 24.3783 57.0505 24.2045C57.5679 24.0307 58.0105 23.77 58.3791 23.4224C58.7472 23.0749 59.0276 22.6491 59.221 22.1451L64.4025 22.484C64.1398 23.7179 63.6001 24.7954 62.7847 25.7165C61.9781 26.6289 60.9347 27.3414 59.6548 27.8541C58.3833 28.3581 56.9147 28.6101 55.2487 28.6101Z" fill="#F0E714"/>
</svg>
